<?xml version="1.0" encoding="UTF-8"?>
<svg id="_Слой_1" data-name="Слой_1" xmlns="http://www.w3.org/2000/svg" version="1.1" viewBox="0 0 566.93 283.46">
  <!-- Generator: Adobe Illustrator 29.3.1, SVG Export Plug-In . SVG Version: 2.1.0 Build 151)  -->
  <defs>
    <style>
      .st0 {
        fill: #0078ff;
      }

      .st1 {
        fill: #3c3c3b;
      }
    </style>
  </defs>
  <path class="st0" d="M130.49,85.14l-21.47-12.41h-.02v.02l-21.47,12.39v92.69l21.47-12.39v-18.3l21.49-12.41,21.47-12.39v-24.82l-21.47-12.39ZM109.02,122.35v-24.82l21.47,12.41-21.47,12.41Z"/>
  <polygon class="st1" points="173.55 134.9 173.55 159.7 152.06 172.11 130.58 184.53 109.11 196.92 109.09 196.94 87.62 209.33 87.62 184.53 109.09 172.11 130.58 159.7 152.06 147.31 136.16 138.12 157.64 125.73 173.53 134.9 173.55 134.9"/>
  <g>
    <path class="st0" d="M240.99,72.73c4.56,0,8.55.92,11.95,2.76,3.41,1.84,6.04,4.46,7.91,7.86,1.87,3.41,2.8,7.36,2.8,11.86s-.93,8.44-2.8,11.82c-1.87,3.38-4.5,5.98-7.91,7.82-3.41,1.84-7.39,2.75-11.95,2.75h-8.09v17.33h-16.71v-62.21h24.79ZM239.39,102.77c2.37,0,4.22-.67,5.56-2s2-3.12,2-5.38-.67-4.13-2-5.47c-1.33-1.33-3.19-2-5.56-2h-6.67v14.84h6.67Z"/>
    <path class="st0" d="M282.34,132.85c-3.94-2.1-7.02-5.03-9.24-8.8-2.22-3.76-3.33-7.98-3.33-12.66s1.11-8.98,3.33-12.71c2.22-3.73,5.29-6.65,9.2-8.75,3.91-2.1,8.35-3.15,13.33-3.15s9.42,1.05,13.33,3.15c3.91,2.1,6.98,5.02,9.2,8.75s3.33,7.97,3.33,12.71-1.11,8.9-3.33,12.66c-2.22,3.76-5.3,6.7-9.24,8.8-3.94,2.1-8.37,3.15-13.29,3.15s-9.35-1.05-13.29-3.15ZM302.92,118.81c1.9-1.92,2.85-4.4,2.85-7.42s-.95-5.49-2.85-7.42c-1.9-1.92-4.32-2.89-7.29-2.89s-5.32.96-7.24,2.89c-1.93,1.93-2.89,4.4-2.89,7.42s.96,5.5,2.89,7.42c1.92,1.93,4.34,2.89,7.24,2.89s5.39-.96,7.29-2.89Z"/>
    <path class="st0" d="M336.14,131.7c-3.79-2.87-5.81-6.77-6.04-11.68h15.46c.06,1.3.62,2.3,1.69,2.98s2.52,1.02,4.35,1.02c1.66,0,2.98-.3,3.95-.89.98-.59,1.47-1.39,1.47-2.4,0-1.12-.58-1.95-1.73-2.49-1.15-.53-3.36-1.01-6.62-1.42-12.03-1.42-18.04-6.28-18.04-14.57,0-3.08.84-5.79,2.53-8.13s4.07-4.15,7.15-5.42c3.08-1.27,6.66-1.91,10.75-1.91,3.79,0,7.2.65,10.22,1.95,3.02,1.3,5.42,3.13,7.2,5.47,1.78,2.34,2.76,4.99,2.93,7.95h-14.84c-.24-2.31-2.13-3.47-5.69-3.47-1.54,0-2.74.25-3.6.76-.86.5-1.29,1.23-1.29,2.18,0,1.13.64,1.99,1.91,2.58,1.27.59,3.51,1.07,6.71,1.42,11.97,1.3,17.95,6.25,17.95,14.84,0,3.08-.88,5.79-2.62,8.13-1.75,2.34-4.22,4.16-7.42,5.47-3.2,1.3-6.9,1.96-11.11,1.96-6.4,0-11.5-1.44-15.29-4.31Z"/>
    <path class="st1" d="M262.1,183.23c1.45,2.64,2.18,5.53,2.18,8.67,0,3.55-.84,6.68-2.53,9.38s-4.09,4.79-7.2,6.27c-3.11,1.48-6.74,2.22-10.89,2.22h-27.46v-62.21h27.01c3.61,0,6.83.7,9.64,2.09,2.81,1.39,5.01,3.38,6.58,5.96,1.57,2.58,2.35,5.52,2.35,8.84,0,2.55-.5,4.9-1.51,7.06-1.01,2.16-2.43,3.99-4.27,5.47,2.61,1.54,4.64,3.63,6.09,6.27ZM232.11,161.23v9.95h8.44c1.72,0,3.05-.43,4-1.29.95-.86,1.42-2.06,1.42-3.6s-.47-2.84-1.42-3.73c-.95-.89-2.28-1.33-4-1.33h-8.44ZM242.24,195.45c1.72,0,3.07-.5,4.04-1.51s1.47-2.37,1.47-4.09-.49-3.08-1.47-4.09c-.98-1.01-2.33-1.51-4.04-1.51h-10.13v11.2h10.13Z"/>
    <path class="st1" d="M308.61,162.65h13.24v47.1h-13.24l-.71-4.18c-4.09,3.44-8.92,5.15-14.48,5.15-4.56,0-8.62-1.07-12.18-3.2-3.56-2.13-6.31-5.07-8.27-8.8-1.96-3.73-2.93-7.91-2.93-12.53s1.01-9.05,3.02-12.75,4.8-6.59,8.35-8.67c3.56-2.07,7.55-3.11,12-3.11,2.78,0,5.42.46,7.91,1.38,2.49.92,4.71,2.21,6.67,3.87l.62-4.27ZM303.32,193.62c1.92-1.92,2.89-4.4,2.89-7.42s-.96-5.49-2.89-7.42c-1.93-1.92-4.37-2.89-7.33-2.89s-5.41.96-7.33,2.89-2.89,4.4-2.89,7.42.96,5.5,2.89,7.42c1.92,1.93,4.37,2.89,7.33,2.89s5.41-.96,7.33-2.89Z"/>
    <path class="st1" d="M352.89,195.8l6.49-.09h12.35v14.04h-40.17v-7.47l17.86-25.86h-16.8v-13.77h38.75v6.75l-18.48,26.39Z"/>
    <path class="st1" d="M420.01,162.65h13.24v47.1h-13.24l-.71-4.18c-4.09,3.44-8.92,5.15-14.48,5.15-4.56,0-8.62-1.07-12.18-3.2-3.56-2.13-6.31-5.07-8.27-8.8-1.96-3.73-2.93-7.91-2.93-12.53s1.01-9.05,3.02-12.75c2.01-3.7,4.8-6.59,8.35-8.67,3.56-2.07,7.55-3.11,12-3.11,2.78,0,5.42.46,7.91,1.38,2.49.92,4.71,2.21,6.67,3.87l.62-4.27ZM414.72,193.62c1.92-1.92,2.89-4.4,2.89-7.42s-.96-5.49-2.89-7.42c-1.93-1.92-4.37-2.89-7.33-2.89s-5.41.96-7.33,2.89c-1.93,1.93-2.89,4.4-2.89,7.42s.96,5.5,2.89,7.42c1.92,1.93,4.37,2.89,7.33,2.89s5.41-.96,7.33-2.89Z"/>
    <path class="st1" d="M479.4,162.65v14.48c-2.02-.41-3.94-.62-5.78-.62-3.61,0-6.38.95-8.31,2.85-1.92,1.9-2.89,4.68-2.89,8.35v22.04h-15.73v-47.1h14.4l.53,4.8c1.42-1.78,3.2-3.14,5.33-4.09,2.13-.95,4.47-1.42,7.02-1.42,1.6,0,3.41.24,5.42.71Z"/>
  </g>
</svg>